<svg xmlns="http://www.w3.org/2000/svg" viewBox="0 0 720 420" role="img" aria-labelledby="title desc">
  <title id="title">Buyer registration illustration</title>
  <desc id="desc">A shopper account setup scene with packages and a laptop.</desc>
  <rect width="720" height="420" rx="24" fill="#eef7f2"/>
  <circle cx="610" cy="82" r="72" fill="#d6eadf"/>
  <circle cx="116" cy="335" r="86" fill="#dce8f2"/>
  <rect x="110" y="96" width="354" height="224" rx="18" fill="#ffffff" stroke="#bfd1c9" stroke-width="4"/>
  <rect x="136" y="128" width="302" height="32" rx="8" fill="#246b55"/>
  <rect x="140" y="184" width="112" height="16" rx="8" fill="#b7c9c1"/>
  <rect x="140" y="216" width="250" height="16" rx="8" fill="#d6e3de"/>
  <rect x="140" y="248" width="210" height="16" rx="8" fill="#d6e3de"/>
  <rect x="292" y="178" width="84" height="72" rx="12" fill="#f6c66f"/>
  <path d="M292 203h84" stroke="#c99436" stroke-width="4"/>
  <path d="M334 178v72" stroke="#c99436" stroke-width="4"/>
  <rect x="426" y="194" width="128" height="134" rx="16" fill="#ffffff" stroke="#bfd1c9" stroke-width="4"/>
  <path d="M452 242h80l-8 50h-64z" fill="#246b55"/>
  <path d="M462 242c2-24 16-38 30-38s28 14 30 38" fill="none" stroke="#246b55" stroke-width="10" stroke-linecap="round"/>
  <circle cx="471" cy="306" r="7" fill="#59616c"/>
  <circle cx="514" cy="306" r="7" fill="#59616c"/>
  <rect x="484" y="92" width="90" height="56" rx="10" fill="#7fb39b"/>
  <rect x="500" y="106" width="58" height="12" rx="6" fill="#eaf5ef"/>
  <rect x="500" y="128" width="38" height="8" rx="4" fill="#eaf5ef"/>
  <path d="M86 335h560" stroke="#c9d1da" stroke-width="5" stroke-linecap="round"/>
</svg>
