<svg xmlns="http://www.w3.org/2000/svg" viewBox="0 0 720 420" role="img" aria-labelledby="title desc">
  <title id="title">Supplier registration illustration</title>
  <desc id="desc">A supplier listing products for sale in an ecommerce portal.</desc>
  <rect width="720" height="420" rx="24" fill="#f3f6fb"/>
  <circle cx="604" cy="96" r="78" fill="#dce8f2"/>
  <circle cx="124" cy="326" r="78" fill="#d6eadf"/>
  <rect x="88" y="92" width="296" height="238" rx="18" fill="#ffffff" stroke="#c7d4e1" stroke-width="4"/>
  <rect x="116" y="124" width="120" height="108" rx="14" fill="#f6c66f"/>
  <path d="M116 157h120" stroke="#c99436" stroke-width="5"/>
  <path d="M176 124v108" stroke="#c99436" stroke-width="5"/>
  <rect x="260" y="130" width="84" height="26" rx="8" fill="#246b55"/>
  <rect x="260" y="180" width="58" height="14" rx="7" fill="#b7c9c1"/>
  <rect x="260" y="210" width="92" height="14" rx="7" fill="#d6e3de"/>
  <rect x="116" y="260" width="232" height="22" rx="11" fill="#e4edf5"/>
  <rect x="116" y="294" width="174" height="18" rx="9" fill="#e4edf5"/>
  <rect x="420" y="118" width="178" height="232" rx="18" fill="#ffffff" stroke="#c7d4e1" stroke-width="4"/>
  <rect x="450" y="154" width="118" height="18" rx="9" fill="#246b55"/>
  <rect x="450" y="194" width="78" height="14" rx="7" fill="#b7c9c1"/>
  <rect x="450" y="226" width="104" height="14" rx="7" fill="#d6e3de"/>
  <rect x="450" y="258" width="92" height="14" rx="7" fill="#d6e3de"/>
  <path d="M566 304l-18-18 9-9 9 9 26-30 10 9z" fill="#246b55"/>
  <rect x="378" y="286" width="88" height="68" rx="12" fill="#7fb39b"/>
  <path d="M378 314h88" stroke="#558672" stroke-width="5"/>
  <path d="M422 286v68" stroke="#558672" stroke-width="5"/>
  <path d="M86 354h560" stroke="#c9d1da" stroke-width="5" stroke-linecap="round"/>
</svg>
